<?xml version="1.0" encoding="utf-8"?>
<!-- Generator: Adobe Illustrator 16.0.2, SVG Export Plug-In . SVG Version: 6.00 Build 0)  -->
<!DOCTYPE svg PUBLIC "-//W3C//DTD SVG 1.1//EN" "http://www.w3.org/Graphics/SVG/1.1/DTD/svg11.dtd">
<svg version="1.1" id="Layer_1" xmlns="http://www.w3.org/2000/svg" xmlns:xlink="http://www.w3.org/1999/xlink" x="0px" y="0px"
	 width="20px" height="20px" viewBox="0 0 20 20" enable-background="new 0 0 20 20" xml:space="preserve">
<path fill="#FFFFFF" d="M14.621,1.327c-0.6-0.499-1.49-0.418-1.988,0.181L6.557,8.797L5,7.24v0.006L4.282,6.527
	c-0.552-0.551-1.447-0.551-1.998,0c-0.548,0.548-0.55,1.432-0.01,1.983l3.379,3.379c0.267,0.266,0.625,0.414,0.998,0.414
	c0.021,0,0.044,0,0.065-0.002c0.396-0.018,0.767-0.201,1.021-0.506l7.064-8.478C15.303,2.719,15.221,1.827,14.621,1.327z"/>
<g>
	<path fill="#FFFFFF" d="M9.273,13.076C8.929,13.491,8.486,13.801,8,14.011V17c0,0.553,0.447,1,1,1h3c0.553,0,1-0.447,1-1V8.604
		L9.273,13.076z"/>
	<path fill="#FFFFFF" d="M6.834,14.299c-0.061,0.003-0.123,0.005-0.183,0.005c-0.908,0-1.765-0.354-2.412-1l-1.973-1.973
		C2.105,11.509,2,11.74,2,12v5c0,0.553,0.447,1,1,1h3c0.553,0,1-0.447,1-1v-2.728C6.943,14.278,6.891,14.296,6.834,14.299z"/>
	<path fill="#FFFFFF" d="M18,3h-0.934c-0.102,0.582-0.34,1.133-0.729,1.598L14,7.404V17c0,0.553,0.447,1,1,1h3c0.553,0,1-0.447,1-1
		V4C19,3.447,18.553,3,18,3z"/>
</g>
</svg>
