<?xml version="1.0" encoding="utf-8"?>
<!-- Generator: Adobe Illustrator 16.0.2, SVG Export Plug-In . SVG Version: 6.00 Build 0)  -->
<!DOCTYPE svg PUBLIC "-//W3C//DTD SVG 1.1//EN" "http://www.w3.org/Graphics/SVG/1.1/DTD/svg11.dtd">
<svg version="1.1" id="Layer_1" xmlns="http://www.w3.org/2000/svg" xmlns:xlink="http://www.w3.org/1999/xlink" x="0px" y="0px"
	 width="20px" height="20px" viewBox="0 0 20 20" enable-background="new 0 0 20 20" xml:space="preserve">
<g>
	<path fill="#FFFFFF" d="M17.818,5.019L19,4.275l-0.439-1.071l-1.354,0.314c-0.192-0.266-0.43-0.504-0.699-0.707l0.307-1.356
		l-1.067-0.447l-0.731,1.174c-0.335-0.054-0.67-0.055-0.997-0.007L13.291,1l-1.07,0.438l0.293,1.351
		c-0.268,0.194-0.506,0.431-0.71,0.704l-1.343-0.317l-0.445,1.067l1.16,0.749c-0.053,0.334-0.053,0.669-0.001,0.999L10,6.714
		l0.438,1.073l1.354-0.295c0.194,0.266,0.43,0.503,0.701,0.705l-0.316,1.348l1.066,0.445l0.753-1.169
		c0.334,0.05,0.67,0.049,0.994-0.001L15.732,10l1.07-0.439l-0.315-1.357c0.265-0.194,0.501-0.428,0.7-0.697l1.365,0.309l0.444-1.066
		l-1.183-0.74C17.865,5.676,17.865,5.345,17.818,5.019z M16.301,6.258c-0.416,0.99-1.557,1.459-2.55,1.045
		c-0.992-0.417-1.462-1.557-1.045-2.554c0.414-0.991,1.558-1.458,2.55-1.045C16.248,4.122,16.718,5.262,16.301,6.258z"/>
	<path fill="#FFFFFF" d="M10.723,10.762l1.042-1.482l-1.06-1.061L9.24,9.272C8.874,9.051,8.476,8.881,8.051,8.777L7.738,7h-1.5
		L5.947,8.771c-0.426,0.104-0.826,0.27-1.191,0.49L3.295,8.219L2.234,9.279l1.026,1.469c-0.222,0.365-0.39,0.768-0.499,1.195
		L1,12.238v1.499l1.762,0.313c0.105,0.428,0.273,0.831,0.498,1.198l-1.041,1.455l1.059,1.062l1.472-1.03
		c0.368,0.223,0.769,0.389,1.194,0.491L6.238,19h1.5l0.314-1.777c0.425-0.108,0.824-0.276,1.188-0.496l1.479,1.038l1.062-1.062
		l-1.056-1.466c0.216-0.367,0.383-0.764,0.488-1.187L13,13.737v-1.499l-1.785-0.293C11.108,11.524,10.942,11.128,10.723,10.762z
		 M7,15.093c-1.156,0-2.092-0.938-2.092-2.094c0-1.153,0.936-2.091,2.092-2.091s2.092,0.938,2.092,2.091
		C9.092,14.154,8.156,15.093,7,15.093z"/>
</g>
</svg>
