<?xml version="1.0" encoding="utf-8"?>
<!-- Generator: Adobe Illustrator 16.0.2, SVG Export Plug-In . SVG Version: 6.00 Build 0)  -->
<!DOCTYPE svg PUBLIC "-//W3C//DTD SVG 1.1//EN" "http://www.w3.org/Graphics/SVG/1.1/DTD/svg11.dtd">
<svg version="1.1" id="Layer_1" xmlns="http://www.w3.org/2000/svg" xmlns:xlink="http://www.w3.org/1999/xlink" x="0px" y="0px"
	 width="20px" height="20px" viewBox="0 0 20 20" enable-background="new 0 0 20 20" xml:space="preserve">
<path fill="#FFFFFF" d="M17.001,2H3C1.896,2,1,2.896,1,3.999V13c0,1.104,0.896,2,2,2h5v1c0,0.366,0.633,1,1,1H7H4.668
	C4.3,17,4,17.299,4,17.666V18h3h3h6v-0.334C16,17.299,15.7,17,15.332,17H11c0.367,0,1-0.678,1-1c0-0.14,0-0.741,0-1h5.001
	C18.104,15,19,14.104,19,13V3.999C19,2.896,18.104,2,17.001,2z M17,12c0,0.048-0.012,0.101-0.031,0.155
	c-0.068,0.423-0.391,0.744-0.813,0.813C16.101,12.988,16.048,13,16,13H4c-0.048,0-0.101-0.012-0.156-0.031
	c-0.422-0.069-0.744-0.391-0.813-0.813C3.012,12.101,3,12.048,3,12V5c0-0.048,0.012-0.101,0.031-0.156
	c0.069-0.422,0.391-0.744,0.813-0.813C3.899,4.012,3.952,4,4,4h12c0.048,0,0.101,0.012,0.156,0.031
	c0.422,0.069,0.744,0.391,0.813,0.813C16.988,4.899,17,4.952,17,5V12z"/>
</svg>
