<?xml version="1.0" encoding="utf-8"?>
<!-- Generator: Adobe Illustrator 16.0.2, SVG Export Plug-In . SVG Version: 6.00 Build 0)  -->
<!DOCTYPE svg PUBLIC "-//W3C//DTD SVG 1.1//EN" "http://www.w3.org/Graphics/SVG/1.1/DTD/svg11.dtd">
<svg version="1.1" id="Layer_1" xmlns="http://www.w3.org/2000/svg" xmlns:xlink="http://www.w3.org/1999/xlink" x="0px" y="0px"
	 width="20px" height="20px" viewBox="0 0 20 20" enable-background="new 0 0 20 20" xml:space="preserve">
<g>
	<path fill="#FFFFFF" d="M18.698,4.886c0,0-2.209,2.218-2.434,2.445c-0.228,0.225-0.987,0.2-0.987,0.2s-2.014-0.227-2.305-0.515
		c-0.289-0.29-0.489-2.39-0.489-2.39S12.429,4.04,12.718,3.75c0.289-0.291,2.443-2.437,2.443-2.437S15.438,1.002,15.037,1
		c-1.291-0.004-3.916,0.024-5.188,1.294L9.587,2.556C8.084,4.064,7.985,6.338,9.191,7.967l-7.43,6.708
		c-0.591,0.591-1.368,2.197,0,3.563c1.371,1.367,2.979,0.591,3.568,0c0,0,4.867-5.313,5.283-5.779
		C11.031,11.995,11,12,12.047,10.829l0.004-0.004c1.627,1.217,3.902,1.123,5.414-0.389l0.26-0.26
		C18.958,8.948,18.995,6.348,19,5.036C19.003,4.618,18.698,4.886,18.698,4.886z M3.5,18C2.67,18,2,17.327,2,16.498
		C2,15.671,2.67,15,3.5,15C4.327,15,5,15.671,5,16.498C5,17.327,4.327,18,3.5,18z"/>
</g>
</svg>
