<?xml version="1.0" encoding="utf-8"?>
<!-- Generator: Adobe Illustrator 16.0.2, SVG Export Plug-In . SVG Version: 6.00 Build 0)  -->
<!DOCTYPE svg PUBLIC "-//W3C//DTD SVG 1.1//EN" "http://www.w3.org/Graphics/SVG/1.1/DTD/svg11.dtd">
<svg version="1.1" id="Layer_1" xmlns="http://www.w3.org/2000/svg" xmlns:xlink="http://www.w3.org/1999/xlink" x="0px" y="0px"
	 width="20px" height="20px" viewBox="0 0 20 20" enable-background="new 0 0 20 20" xml:space="preserve">
<g>
	<path fill="#FFFFFF" d="M3.808,6.217c0,0,1.602,1.596,1.766,1.758c0.163,0.165,0.145,0.713,0.145,0.713s-0.164,1.455-0.372,1.665
		c-0.209,0.208-1.726,0.354-1.726,0.354s-0.424,0.039-0.633-0.169c-0.21-0.209-1.76-1.765-1.76-1.765S1.002,8.572,1,8.862
		c-0.002,0.932,0.018,2.828,0.935,3.747l0.189,0.19c1.09,1.084,2.731,1.156,3.909,0.284l4.844,5.366
		c0.427,0.427,1.586,0.989,2.574,0c0.987-0.99,0.427-2.151,0-2.576c0,0-3.837-3.517-4.174-3.816
		c-0.335-0.303-0.331-0.279-1.177-1.036l-0.002-0.002C8.975,9.844,8.907,8.2,7.816,7.108L7.628,6.92C6.741,6.03,4.863,6.003,3.916,6
		C3.613,5.998,3.808,6.217,3.808,6.217z"/>
</g>
<path fill="#FFFFFF" d="M17.332,6.674l1.596-0.858l-0.471-1.423L16.67,4.675c-0.232-0.366-0.515-0.69-0.839-0.968l0.524-1.735
	l-1.339-0.674l-1.061,1.46c-0.417-0.096-0.849-0.131-1.285-0.097l-0.854-1.589l-1.424,0.471l0.28,1.772
	c-0.372,0.232-0.699,0.517-0.977,0.84L7.981,3.625l-0.674,1.34l0.084,0.063c0.482,0.199,0.929,0.462,1.3,0.835l0.186,0.186
	c1.137,1.137,1.544,2.716,1.201,4.185c0.027,0.024,0.05,0.053,0.078,0.077l-0.127,0.409c0.075,0.065,0.149,0.13,0.255,0.226
	c0.107,0.095,0.585,0.532,1.181,1.077l0.573-0.769c0.419,0.096,0.852,0.128,1.288,0.092l0.837,1.592l1.424-0.471l-0.26-1.787
	c0.37-0.236,0.696-0.521,0.973-0.844l1.731,0.521l0.674-1.341l-1.463-1.06C17.33,7.538,17.364,7.108,17.332,6.674z M13.657,8.987
	c-1.098,0.363-2.28-0.234-2.644-1.331c-0.362-1.095,0.231-2.279,1.329-2.642c1.098-0.363,2.28,0.233,2.643,1.328
	C15.349,7.439,14.755,8.624,13.657,8.987z"/>
</svg>
