<?xml version="1.0" encoding="utf-8"?>
<!-- Generator: Adobe Illustrator 15.0.0, SVG Export Plug-In  -->
<!DOCTYPE svg PUBLIC "-//W3C//DTD SVG 1.1//EN" "http://www.w3.org/Graphics/SVG/1.1/DTD/svg11.dtd" [
	<!ENTITY ns_flows "http://ns.adobe.com/Flows/1.0/">
]>
<svg version="1.1"
	 xmlns="http://www.w3.org/2000/svg" xmlns:xlink="http://www.w3.org/1999/xlink" xmlns:a="http://ns.adobe.com/AdobeSVGViewerExtensions/3.0/"
	 x="0px" y="0px" width="24px" height="24px" viewBox="0 0 24 24" enable-background="new 0 0 24 24" xml:space="preserve">
<defs>
</defs>
<path fill="#953883" d="M12.001,0C5.374,0,0,5.374,0,12c0,6.627,5.374,12,12.001,12C18.628,24,24,18.627,24,12
	C24,5.374,18.628,0,12.001,0z M12.238,20.252c-1.273,0-2.302-1.031-2.302-2.303c0-1.273,1.029-2.303,2.302-2.303
	c1.271,0,2.301,1.029,2.301,2.303C14.539,19.221,13.51,20.252,12.238,20.252z M14.691,11.455c-0.684,0.709-1.014,1.085-1.014,1.881
	c0,0.795-0.645,1.439-1.439,1.439c-0.797,0-1.441-0.645-1.441-1.439c0-1.996,1.056-3.087,1.825-3.883
	c0.697-0.721,1.031-1.104,1.031-1.931c0-1.342,0-1.394-1.414-1.394c-1.414,0-1.414,0.027-1.414,1.434c0,0.795-0.644,1.44-1.44,1.44
	c-0.796,0-1.439-0.645-1.439-1.44c0-1.4,0-4.314,4.293-4.314c4.295,0,4.295,2.996,4.295,4.275
	C16.533,9.551,15.471,10.651,14.691,11.455z"/>
</svg>
