<?xml version="1.0" encoding="utf-8"?>
<!-- Generator: Adobe Illustrator 15.0.0, SVG Export Plug-In  -->
<!DOCTYPE svg PUBLIC "-//W3C//DTD SVG 1.1//EN" "http://www.w3.org/Graphics/SVG/1.1/DTD/svg11.dtd" [
	<!ENTITY ns_flows "http://ns.adobe.com/Flows/1.0/">
]>
<svg version="1.1"
	 xmlns="http://www.w3.org/2000/svg" xmlns:xlink="http://www.w3.org/1999/xlink" xmlns:a="http://ns.adobe.com/AdobeSVGViewerExtensions/3.0/"
	 x="0px" y="0px" width="235px" height="128px" viewBox="0 0 235 128" enable-background="new 0 0 235 128" xml:space="preserve">
<defs>
</defs>
<linearGradient id="SVGID_1_" gradientUnits="userSpaceOnUse" x1="-2.6094" y1="1.4604" x2="231.3974" y2="126.7976">
	<stop  offset="0" style="stop-color:#009F80"/>
	<stop  offset="1" style="stop-color:#00529B"/>
</linearGradient>
<path fill="url(#SVGID_1_)" d="M23.45,22.925l5.04-21.7c0.093-0.327,0.279-0.578,0.56-0.752c0.28-0.175,0.595-0.216,0.945-0.123
	c0.373,0.093,0.624,0.292,0.752,0.595c0.128,0.304,0.158,0.607,0.088,0.91l-5.215,21.35c-0.164,0.63-0.45,1.108-0.857,1.435
	c-0.409,0.326-0.857,0.49-1.348,0.49s-0.945-0.164-1.365-0.49c-0.42-0.327-0.724-0.793-0.91-1.4L15.47,2.695h-0.104L9.555,23.24
	c-0.187,0.607-0.479,1.074-0.875,1.4c-0.396,0.326-0.84,0.49-1.33,0.49s-0.951-0.164-1.382-0.49
	c-0.433-0.327-0.718-0.805-0.858-1.435L0.035,1.855C-0.035,1.552,0,1.249,0.14,0.945C0.28,0.642,0.524,0.443,0.875,0.35
	c0.35-0.093,0.677-0.053,0.979,0.123c0.304,0.175,0.49,0.426,0.561,0.752l4.899,21.7h0.07l5.811-20.72
	c0.186-0.606,0.483-1.062,0.892-1.365c0.408-0.303,0.858-0.455,1.348-0.455c0.467,0,0.916,0.152,1.348,0.455
	c0.432,0.304,0.729,0.747,0.893,1.33l5.705,20.755H23.45z"/>
<linearGradient id="SVGID_2_" gradientUnits="userSpaceOnUse" x1="3.1992" y1="-9.3882" x2="237.2096" y2="115.9509">
	<stop  offset="0" style="stop-color:#009F80"/>
	<stop  offset="1" style="stop-color:#00529B"/>
</linearGradient>
<path fill="url(#SVGID_2_)" d="M35.979,2.485c0-0.606,0.187-1.12,0.561-1.54c0.373-0.42,0.921-0.63,1.645-0.63H50.54
	c0.35,0,0.647,0.117,0.893,0.35C51.678,0.898,51.8,1.19,51.8,1.54c0,0.327-0.128,0.612-0.385,0.857s-0.549,0.368-0.875,0.368H38.43
	v6.79c0,0.35-0.117,0.647-0.35,0.892c-0.233,0.245-0.525,0.368-0.875,0.368c-0.327,0-0.612-0.128-0.857-0.385
	s-0.368-0.548-0.368-0.875V2.485z M35.979,14.708c0-0.491,0.094-0.947,0.28-1.368c0.187-0.421,0.438-0.789,0.753-1.105
	c0.314-0.316,0.683-0.562,1.103-0.737s0.862-0.263,1.33-0.263H50.26c0.351,0,0.647,0.113,0.893,0.337
	c0.245,0.226,0.367,0.515,0.367,0.87c0,0.332-0.128,0.622-0.385,0.87c-0.257,0.249-0.549,0.373-0.875,0.373h-10.78
	c-0.303,0-0.554,0.1-0.752,0.297c-0.198,0.199-0.298,0.45-0.298,0.752v7.63H50.61c0.326,0,0.617,0.123,0.875,0.368
	c0.256,0.245,0.385,0.531,0.385,0.857c0,0.35-0.123,0.642-0.368,0.875c-0.244,0.233-0.542,0.35-0.892,0.35H38.185
	c-0.724,0-1.271-0.21-1.645-0.632c-0.374-0.421-0.561-0.936-0.561-1.543V14.708z"/>
<linearGradient id="SVGID_3_" gradientUnits="userSpaceOnUse" x1="6.6187" y1="-15.7715" x2="240.629" y2="109.5676">
	<stop  offset="0" style="stop-color:#009F80"/>
	<stop  offset="1" style="stop-color:#00529B"/>
</linearGradient>
<path fill="url(#SVGID_3_)" d="M57.994,1.575c0-0.35,0.123-0.647,0.368-0.892c0.245-0.245,0.53-0.368,0.857-0.368
	c0.35,0,0.642,0.123,0.875,0.368c0.232,0.245,0.35,0.542,0.35,0.892v20.79h11.83c0.326,0,0.618,0.123,0.875,0.368
	s0.385,0.531,0.385,0.857c0,0.35-0.122,0.642-0.367,0.875c-0.245,0.233-0.542,0.35-0.893,0.35H60.199
	c-0.724,0-1.271-0.21-1.645-0.63c-0.374-0.42-0.561-0.933-0.561-1.54V1.575z"/>
<linearGradient id="SVGID_4_" gradientUnits="userSpaceOnUse" x1="12.3667" y1="-26.4912" x2="246.3572" y2="98.8372">
	<stop  offset="0" style="stop-color:#009F80"/>
	<stop  offset="1" style="stop-color:#00529B"/>
</linearGradient>
<path fill="url(#SVGID_4_)" d="M85.365,22.75c1.492,0,2.817-0.396,3.973-1.19c1.154-0.793,2-1.855,2.537-3.185
	c0.093-0.21,0.232-0.396,0.42-0.56c0.187-0.163,0.432-0.245,0.735-0.245c0.279,0,0.548,0.111,0.805,0.333
	c0.257,0.222,0.385,0.496,0.385,0.823c0,0.187-0.035,0.362-0.104,0.525c-0.351,0.887-0.817,1.686-1.4,2.397
	c-0.583,0.712-1.255,1.33-2.013,1.855S89.11,24.43,88.2,24.71s-1.855,0.42-2.835,0.42c-1.494,0-2.87-0.286-4.13-0.857
	c-1.261-0.571-2.346-1.341-3.256-2.31c-0.909-0.968-1.615-2.105-2.117-3.413c-0.502-1.306-0.741-2.695-0.718-4.165
	c0-0.396,0.123-0.717,0.368-0.962s0.53-0.367,0.857-0.367c0.326,0,0.612,0.105,0.857,0.315s0.367,0.513,0.367,0.91
	c0.023,1.19,0.228,2.305,0.612,3.343c0.386,1.039,0.916,1.937,1.593,2.695c0.677,0.759,1.481,1.354,2.415,1.785
	C83.147,22.535,84.198,22.75,85.365,22.75z M85.365,0c0.979,0,1.925,0.14,2.835,0.42s1.744,0.683,2.502,1.208
	s1.43,1.149,2.013,1.873c0.583,0.724,1.05,1.517,1.4,2.38c0.069,0.187,0.104,0.362,0.104,0.525c0,0.327-0.128,0.601-0.385,0.823
	C93.578,7.45,93.31,7.56,93.03,7.56c-0.304,0-0.549-0.082-0.735-0.245c-0.188-0.163-0.327-0.35-0.42-0.56
	c-0.537-1.33-1.383-2.392-2.537-3.185c-1.155-0.793-2.48-1.19-3.973-1.19c-1.167,0-2.218,0.216-3.15,0.647
	c-0.934,0.432-1.738,1.027-2.415,1.785c-0.677,0.758-1.207,1.657-1.593,2.695c-0.385,1.039-0.589,2.153-0.612,3.343
	c0,0.397-0.122,0.7-0.367,0.91s-0.531,0.315-0.857,0.315c-0.327,0-0.612-0.122-0.857-0.367s-0.368-0.565-0.368-0.962
	c-0.023-1.47,0.216-2.858,0.718-4.165c0.502-1.307,1.208-2.444,2.117-3.413c0.91-0.968,1.995-1.738,3.256-2.31
	C82.495,0.286,83.871,0,85.365,0z"/>
<linearGradient id="SVGID_5_" gradientUnits="userSpaceOnUse" x1="17.6514" y1="-36.3745" x2="251.6614" y2="88.9644">
	<stop  offset="0" style="stop-color:#009F80"/>
	<stop  offset="1" style="stop-color:#00529B"/>
</linearGradient>
<path fill="url(#SVGID_5_)" d="M109.024,2.38c-1.05,0-2.024,0.187-2.922,0.56c-0.899,0.374-1.681,0.887-2.346,1.54
	c-0.665,0.653-1.207,1.435-1.627,2.345c-0.42,0.91-0.678,1.89-0.771,2.94c-0.187,1.867-0.187,3.733,0,5.6
	c0.093,0.934,0.298,1.803,0.612,2.608c0.315,0.805,0.735,1.522,1.261,2.152c0.524,0.63,1.143,1.155,1.854,1.575
	c0.712,0.42,1.499,0.712,2.362,0.875c0.257,0.047,0.484,0.181,0.683,0.403c0.198,0.222,0.298,0.472,0.298,0.752
	c0,0.327-0.117,0.601-0.351,0.822c-0.233,0.222-0.502,0.333-0.805,0.333c-0.117,0-0.228-0.006-0.332-0.017
	c-0.105-0.012-0.217-0.03-0.333-0.053c-1.05-0.233-2.03-0.63-2.939-1.19c-0.91-0.56-1.704-1.243-2.38-2.047
	c-0.678-0.805-1.226-1.733-1.646-2.783s-0.677-2.182-0.77-3.395c-0.141-1.89-0.141-3.78,0-5.67c0.093-1.353,0.413-2.625,0.962-3.815
	c0.548-1.19,1.271-2.223,2.17-3.098s1.942-1.563,3.133-2.065C106.329,0.251,107.625,0,109.024,0c1.4,0,2.695,0.251,3.885,0.752
	c1.19,0.502,2.234,1.19,3.133,2.065s1.621,1.908,2.17,3.098c0.548,1.19,0.869,2.462,0.963,3.815c0.14,1.89,0.14,3.78,0,5.67
	c-0.094,1.213-0.351,2.345-0.771,3.395s-0.968,1.978-1.645,2.783c-0.677,0.805-1.47,1.487-2.38,2.047s-1.891,0.957-2.94,1.19
	c-0.117,0.023-0.228,0.041-0.332,0.053c-0.105,0.011-0.217,0.017-0.333,0.017c-0.304,0-0.572-0.11-0.805-0.333
	c-0.233-0.221-0.351-0.495-0.351-0.822c0-0.28,0.1-0.53,0.298-0.752c0.198-0.222,0.426-0.355,0.683-0.403
	c0.863-0.163,1.645-0.455,2.345-0.875c0.7-0.42,1.313-0.945,1.838-1.575c0.524-0.63,0.95-1.348,1.277-2.152
	c0.326-0.805,0.536-1.674,0.63-2.608c0.187-1.866,0.187-3.733,0-5.6c-0.094-1.05-0.35-2.03-0.77-2.94
	c-0.42-0.91-0.963-1.691-1.628-2.345c-0.665-0.653-1.447-1.167-2.345-1.54C111.049,2.567,110.074,2.38,109.024,2.38z"/>
<linearGradient id="SVGID_6_" gradientUnits="userSpaceOnUse" x1="23.8364" y1="-47.9136" x2="257.8363" y2="77.4199">
	<stop  offset="0" style="stop-color:#009F80"/>
	<stop  offset="1" style="stop-color:#00529B"/>
</linearGradient>
<path fill="url(#SVGID_6_)" d="M147.734,2.765c-0.023-0.093-0.064-0.181-0.122-0.263c-0.059-0.082-0.146-0.123-0.263-0.123
	c-0.21,0-0.35,0.117-0.42,0.35l-5.354,19.635c-0.421,1.634-1.319,2.45-2.695,2.45c-1.354,0-2.252-0.816-2.695-2.45L130.83,2.73
	c-0.07-0.233-0.21-0.35-0.42-0.35c-0.117,0-0.205,0.041-0.263,0.123c-0.059,0.082-0.1,0.169-0.123,0.263l-3.569,21.105
	c-0.048,0.35-0.217,0.618-0.508,0.805c-0.292,0.187-0.636,0.233-1.032,0.14c-0.351-0.093-0.596-0.286-0.735-0.578
	c-0.14-0.292-0.187-0.6-0.14-0.927l3.675-20.86c0.163-0.84,0.483-1.458,0.962-1.855C129.155,0.198,129.732,0,130.41,0
	c0.676,0,1.26,0.192,1.75,0.578c0.489,0.385,0.827,0.916,1.015,1.592l5.354,19.95c0.023,0.093,0.064,0.181,0.123,0.262
	c0.058,0.082,0.146,0.123,0.263,0.123c0.116,0,0.21-0.041,0.279-0.123c0.07-0.082,0.117-0.169,0.141-0.262l5.25-19.95
	c0.187-0.676,0.524-1.208,1.015-1.592C146.09,0.192,146.673,0,147.35,0s1.254,0.198,1.732,0.595
	c0.479,0.397,0.799,1.015,0.963,1.855l3.71,20.86c0.046,0.327,0,0.636-0.141,0.927c-0.14,0.292-0.385,0.485-0.734,0.578
	c-0.397,0.093-0.741,0.046-1.032-0.14c-0.292-0.187-0.462-0.455-0.508-0.805L147.734,2.765z"/>
<linearGradient id="SVGID_7_" gradientUnits="userSpaceOnUse" x1="30.7964" y1="-60.894" x2="264.7866" y2="64.4343">
	<stop  offset="0" style="stop-color:#009F80"/>
	<stop  offset="1" style="stop-color:#00529B"/>
</linearGradient>
<path fill="url(#SVGID_7_)" d="M159.739,2.485c0-0.606,0.187-1.12,0.56-1.54s0.922-0.63,1.646-0.63h12.354
	c0.351,0,0.647,0.117,0.893,0.35c0.245,0.233,0.368,0.525,0.368,0.875c0,0.327-0.129,0.612-0.386,0.857s-0.548,0.368-0.875,0.368
	h-12.109v6.79c0,0.35-0.117,0.647-0.351,0.892c-0.233,0.245-0.524,0.368-0.875,0.368c-0.327,0-0.612-0.128-0.857-0.385
	s-0.367-0.548-0.367-0.875V2.485z M159.739,14.708c0-0.491,0.093-0.947,0.28-1.368c0.187-0.421,0.438-0.789,0.752-1.105
	c0.315-0.316,0.683-0.562,1.103-0.737s0.863-0.263,1.33-0.263h10.815c0.35,0,0.647,0.113,0.893,0.337
	c0.244,0.226,0.367,0.515,0.367,0.87c0,0.332-0.129,0.622-0.385,0.87c-0.258,0.249-0.549,0.373-0.875,0.373h-10.78
	c-0.304,0-0.555,0.1-0.753,0.297c-0.198,0.199-0.297,0.45-0.297,0.752v7.63h12.18c0.326,0,0.618,0.123,0.875,0.368
	s0.385,0.531,0.385,0.857c0,0.35-0.122,0.642-0.367,0.875c-0.245,0.233-0.543,0.35-0.893,0.35h-12.425
	c-0.724,0-1.272-0.21-1.646-0.632c-0.373-0.421-0.56-0.936-0.56-1.543V14.708z"/>
<linearGradient id="SVGID_8_" gradientUnits="userSpaceOnUse" x1="38.6621" y1="-75.6104" x2="272.6726" y2="49.7288">
	<stop  offset="0" style="stop-color:#009F80"/>
	<stop  offset="1" style="stop-color:#00529B"/>
</linearGradient>
<path fill="url(#SVGID_8_)" d="M197.818,2.765h-7.28c-0.35,0-0.647-0.123-0.893-0.368s-0.367-0.53-0.367-0.857
	c0-0.35,0.122-0.642,0.367-0.875c0.245-0.233,0.543-0.35,0.893-0.35h16.94c0.35,0,0.647,0.117,0.893,0.35
	c0.245,0.233,0.367,0.525,0.367,0.875c0,0.327-0.129,0.612-0.385,0.857c-0.257,0.245-0.549,0.368-0.875,0.368h-7.21v20.79
	c0,0.35-0.117,0.647-0.351,0.892c-0.233,0.245-0.524,0.368-0.875,0.368c-0.326,0-0.612-0.128-0.857-0.385s-0.367-0.548-0.367-0.875
	V2.765z"/>
<linearGradient id="SVGID_9_" gradientUnits="userSpaceOnUse" x1="42.6704" y1="-83.0933" x2="276.6804" y2="42.2456">
	<stop  offset="0" style="stop-color:#009F80"/>
	<stop  offset="1" style="stop-color:#00529B"/>
</linearGradient>
<path fill="url(#SVGID_9_)" d="M221.269,2.38c-1.05,0-2.024,0.187-2.922,0.56c-0.899,0.374-1.681,0.887-2.346,1.54
	c-0.665,0.653-1.207,1.435-1.627,2.345c-0.42,0.91-0.678,1.89-0.771,2.94c-0.187,1.867-0.187,3.733,0,5.6
	c0.093,0.934,0.298,1.803,0.612,2.608c0.315,0.805,0.735,1.522,1.261,2.152c0.524,0.63,1.143,1.155,1.854,1.575
	c0.712,0.42,1.499,0.712,2.362,0.875c0.257,0.047,0.484,0.181,0.683,0.403c0.198,0.222,0.298,0.472,0.298,0.752
	c0,0.327-0.117,0.601-0.351,0.822c-0.233,0.222-0.502,0.333-0.805,0.333c-0.117,0-0.228-0.006-0.332-0.017
	c-0.105-0.012-0.217-0.03-0.333-0.053c-1.05-0.233-2.03-0.63-2.939-1.19c-0.91-0.56-1.704-1.243-2.38-2.047
	c-0.678-0.805-1.226-1.733-1.646-2.783s-0.677-2.182-0.77-3.395c-0.141-1.89-0.141-3.78,0-5.67c0.093-1.353,0.413-2.625,0.962-3.815
	c0.548-1.19,1.271-2.223,2.17-3.098s1.942-1.563,3.133-2.065C218.573,0.251,219.869,0,221.269,0c1.4,0,2.695,0.251,3.885,0.752
	c1.19,0.502,2.234,1.19,3.133,2.065s1.621,1.908,2.17,3.098c0.548,1.19,0.869,2.462,0.963,3.815c0.14,1.89,0.14,3.78,0,5.67
	c-0.094,1.213-0.351,2.345-0.771,3.395s-0.968,1.978-1.645,2.783c-0.677,0.805-1.47,1.487-2.38,2.047s-1.891,0.957-2.94,1.19
	c-0.117,0.023-0.228,0.041-0.332,0.053c-0.105,0.011-0.217,0.017-0.333,0.017c-0.304,0-0.572-0.11-0.805-0.333
	c-0.233-0.221-0.351-0.495-0.351-0.822c0-0.28,0.1-0.53,0.298-0.752c0.198-0.222,0.426-0.355,0.683-0.403
	c0.863-0.163,1.645-0.455,2.345-0.875c0.7-0.42,1.313-0.945,1.838-1.575c0.524-0.63,0.95-1.348,1.277-2.152
	c0.326-0.805,0.536-1.674,0.63-2.608c0.187-1.866,0.187-3.733,0-5.6c-0.094-1.05-0.35-2.03-0.77-2.94
	c-0.42-0.91-0.963-1.691-1.628-2.345c-0.665-0.653-1.447-1.167-2.345-1.54C223.293,2.567,222.318,2.38,221.269,2.38z"/>
<linearGradient id="SVGID_10_" gradientUnits="userSpaceOnUse" x1="-20.5923" y1="35.0396" x2="213.401" y2="160.3695">
	<stop  offset="0" style="stop-color:#009F80"/>
	<stop  offset="1" style="stop-color:#00529B"/>
</linearGradient>
<path fill="url(#SVGID_10_)" d="M3.64,40.223c0-0.832,0.256-1.536,0.769-2.112c0.511-0.576,1.264-0.864,2.256-0.864h16.943
	c0.48,0,0.889,0.161,1.225,0.48c0.336,0.32,0.504,0.72,0.504,1.2c0,0.448-0.177,0.84-0.528,1.176
	c-0.353,0.336-0.752,0.504-1.2,0.504H7v9.312c0,0.48-0.161,0.888-0.48,1.224c-0.32,0.336-0.72,0.504-1.199,0.504
	c-0.449,0-0.841-0.175-1.177-0.528c-0.336-0.352-0.504-0.751-0.504-1.2V40.223z M3.64,56.987c0-0.674,0.128-1.299,0.384-1.876
	c0.256-0.578,0.601-1.083,1.032-1.516c0.433-0.433,0.937-0.77,1.512-1.011c0.576-0.24,1.184-0.361,1.824-0.361h14.832
	c0.48,0,0.889,0.154,1.225,0.463c0.336,0.309,0.504,0.707,0.504,1.193c0,0.454-0.177,0.853-0.528,1.193
	c-0.353,0.341-0.752,0.511-1.2,0.511H8.439c-0.416,0-0.76,0.137-1.031,0.408C7.136,56.263,7,56.607,7,57.022v10.464h16.704
	c0.447,0,0.848,0.168,1.2,0.504c0.352,0.336,0.527,0.729,0.527,1.176c0,0.48-0.168,0.881-0.504,1.201s-0.744,0.479-1.224,0.479
	H6.664c-0.992,0-1.745-0.288-2.256-0.866c-0.513-0.578-0.769-1.283-0.769-2.117V56.987z"/>
<linearGradient id="SVGID_11_" gradientUnits="userSpaceOnUse" x1="-14.4058" y1="23.4824" x2="219.6006" y2="148.8193">
	<stop  offset="0" style="stop-color:#009F80"/>
	<stop  offset="1" style="stop-color:#00529B"/>
</linearGradient>
<path fill="url(#SVGID_11_)" d="M57.688,47.423c0,2.112-0.479,3.92-1.439,5.424c-0.96,1.504-2.256,2.672-3.889,3.504
	c-0.224,0.128-0.496,0.192-0.815,0.192c-0.448,0-0.84-0.16-1.176-0.48c-0.336-0.319-0.505-0.703-0.505-1.152
	c0-0.672,0.305-1.167,0.912-1.488c1.184-0.64,2.056-1.424,2.616-2.352c0.56-0.928,0.84-2.16,0.84-3.696c0-2.112-0.6-3.784-1.8-5.016
	s-3.064-1.848-5.592-1.848h-9.648v13.536h6.385c1.215,0,2.263,0.216,3.144,0.648c0.88,0.432,1.704,1.128,2.472,2.088l9.024,11.329
	c0.256,0.352,0.367,0.768,0.336,1.248c-0.032,0.479-0.225,0.848-0.576,1.104c-0.353,0.352-0.768,0.496-1.248,0.432
	c-0.479-0.063-0.864-0.271-1.151-0.624l-9.12-11.424c-0.288-0.352-0.648-0.696-1.08-1.032c-0.433-0.336-1.032-0.504-1.8-0.504
	h-6.385v11.809c0,0.448-0.168,0.848-0.504,1.199c-0.336,0.354-0.728,0.528-1.176,0.528s-0.84-0.175-1.176-0.528
	c-0.336-0.352-0.504-0.751-0.504-1.199V40.223c0-0.832,0.256-1.536,0.768-2.112c0.512-0.576,1.264-0.864,2.256-0.864h10.128
	c1.44,0,2.809,0.216,4.104,0.648c1.296,0.432,2.432,1.08,3.408,1.944c0.976,0.864,1.752,1.928,2.328,3.192
	C57.399,44.295,57.688,45.759,57.688,47.423z"/>
<linearGradient id="SVGID_12_" gradientUnits="userSpaceOnUse" x1="-8.6514" y1="12.7437" x2="225.3479" y2="138.0768">
	<stop  offset="0" style="stop-color:#009F80"/>
	<stop  offset="1" style="stop-color:#00529B"/>
</linearGradient>
<path fill="url(#SVGID_12_)" d="M66.759,38.975c0-0.48,0.168-0.888,0.504-1.224c0.336-0.336,0.728-0.504,1.177-0.504
	c0.479,0,0.879,0.168,1.199,0.504c0.319,0.336,0.48,0.744,0.48,1.224v30.145c0,0.479-0.161,0.888-0.48,1.224
	c-0.32,0.336-0.72,0.504-1.199,0.504c-0.449,0-0.841-0.175-1.177-0.528c-0.336-0.352-0.504-0.751-0.504-1.199V38.975z"/>
<linearGradient id="SVGID_13_" gradientUnits="userSpaceOnUse" x1="-3.2988" y1="2.75" x2="230.7011" y2="128.0835">
	<stop  offset="0" style="stop-color:#009F80"/>
	<stop  offset="1" style="stop-color:#00529B"/>
</linearGradient>
<path fill="url(#SVGID_13_)" d="M92.583,68.015c2.048,0,3.864-0.544,5.448-1.632s2.744-2.544,3.48-4.368
	c0.127-0.288,0.319-0.544,0.576-0.768c0.255-0.224,0.591-0.336,1.008-0.336c0.384,0,0.751,0.152,1.104,0.456
	c0.352,0.305,0.528,0.68,0.528,1.128c0,0.256-0.048,0.497-0.145,0.72c-0.479,1.216-1.12,2.313-1.92,3.287
	c-0.8,0.977-1.72,1.824-2.76,2.545c-1.04,0.72-2.184,1.271-3.432,1.656c-1.248,0.384-2.544,0.576-3.889,0.576
	c-2.048,0-3.936-0.393-5.664-1.177c-1.728-0.784-3.216-1.84-4.464-3.168c-1.248-1.327-2.216-2.887-2.903-4.68
	c-0.688-1.792-1.017-3.696-0.984-5.712c0-0.543,0.168-0.984,0.504-1.32s0.728-0.504,1.176-0.504s0.841,0.144,1.177,0.432
	c0.336,0.288,0.504,0.704,0.504,1.248c0.031,1.632,0.312,3.161,0.84,4.584s1.255,2.656,2.184,3.696
	c0.928,1.04,2.032,1.856,3.313,2.448C89.543,67.719,90.983,68.015,92.583,68.015z M92.583,36.814c1.345,0,2.641,0.192,3.889,0.576
	c1.248,0.384,2.392,0.936,3.432,1.656c1.04,0.72,1.96,1.576,2.76,2.568c0.8,0.992,1.44,2.081,1.92,3.264
	c0.097,0.256,0.145,0.496,0.145,0.72c0,0.449-0.177,0.824-0.528,1.128c-0.353,0.305-0.72,0.456-1.104,0.456
	c-0.417,0-0.753-0.112-1.008-0.336c-0.257-0.224-0.449-0.48-0.576-0.768c-0.736-1.824-1.896-3.28-3.48-4.368
	c-1.584-1.087-3.4-1.632-5.448-1.632c-1.6,0-3.04,0.296-4.319,0.888c-1.28,0.592-2.385,1.408-3.313,2.448
	c-0.929,1.041-1.655,2.272-2.184,3.696c-0.528,1.424-0.809,2.952-0.84,4.584c0,0.544-0.168,0.96-0.504,1.248
	c-0.336,0.288-0.729,0.432-1.177,0.432s-0.84-0.168-1.176-0.504s-0.504-0.775-0.504-1.32c-0.032-2.016,0.296-3.919,0.984-5.712
	c0.688-1.792,1.655-3.352,2.903-4.68c1.248-1.328,2.736-2.383,4.464-3.168C88.647,37.207,90.535,36.814,92.583,36.814z"/>
<linearGradient id="SVGID_14_" gradientUnits="userSpaceOnUse" x1="3.2988" y1="-9.5679" x2="237.2989" y2="115.7657">
	<stop  offset="0" style="stop-color:#009F80"/>
	<stop  offset="1" style="stop-color:#00529B"/>
</linearGradient>
<path fill="url(#SVGID_14_)" d="M125.654,52.75c3.2,0.737,5.568,1.856,7.104,3.36c1.536,1.504,2.304,3.472,2.304,5.904
	c0,1.44-0.296,2.729-0.888,3.864c-0.593,1.137-1.416,2.104-2.472,2.904c-1.057,0.8-2.313,1.416-3.769,1.848
	s-3.048,0.648-4.776,0.648c-1.313,0-2.567-0.105-3.768-0.313c-1.2-0.208-2.313-0.48-3.336-0.816
	c-1.024-0.336-1.961-0.727-2.808-1.176c-0.849-0.447-1.561-0.912-2.137-1.393c-0.416-0.318-0.624-0.783-0.624-1.391
	c0-0.448,0.168-0.832,0.504-1.152c0.337-0.32,0.744-0.48,1.225-0.48c0.224,0,0.432,0.048,0.624,0.144
	c0.191,0.096,0.367,0.208,0.527,0.336c1.12,0.832,2.488,1.535,4.104,2.111c1.615,0.576,3.48,0.864,5.592,0.864
	c1.472,0,2.752-0.168,3.84-0.504s1.976-0.775,2.664-1.319c0.688-0.545,1.2-1.184,1.536-1.921c0.336-0.735,0.504-1.488,0.504-2.256
	s-0.112-1.456-0.336-2.064c-0.224-0.607-0.6-1.152-1.128-1.632s-1.232-0.904-2.112-1.272c-0.88-0.368-1.976-0.712-3.287-1.032
	c-0.353-0.096-0.656-0.295-0.912-0.6c-0.257-0.304-0.385-0.679-0.385-1.128c0-0.448,0.2-0.855,0.601-1.224
	C124.446,52.695,124.982,52.591,125.654,52.75z M120.183,55.007c-3.2-0.736-5.568-1.8-7.104-3.192
	c-1.536-1.392-2.305-3.304-2.305-5.736c0-1.44,0.271-2.728,0.816-3.864c0.544-1.136,1.304-2.104,2.28-2.904
	c0.976-0.799,2.151-1.416,3.527-1.848c1.376-0.432,2.896-0.648,4.561-0.648c1.92,0,3.712,0.249,5.376,0.744
	c1.663,0.497,3.007,1.16,4.031,1.992c0.416,0.353,0.624,0.816,0.624,1.392c0,0.448-0.168,0.833-0.504,1.152
	c-0.336,0.32-0.743,0.48-1.224,0.48c-0.225,0-0.432-0.056-0.624-0.168c-0.192-0.112-0.368-0.216-0.528-0.312
	c-0.96-0.576-2.016-1.056-3.168-1.44c-1.151-0.384-2.447-0.576-3.888-0.576c-1.505,0-2.753,0.161-3.744,0.48
	c-0.992,0.32-1.792,0.752-2.399,1.296c-0.608,0.545-1.041,1.176-1.297,1.896c-0.256,0.72-0.384,1.464-0.384,2.232
	c0,0.768,0.112,1.44,0.336,2.016c0.224,0.576,0.601,1.088,1.128,1.536c0.528,0.449,1.231,0.848,2.112,1.2
	c0.88,0.353,1.976,0.688,3.288,1.008c0.352,0.096,0.655,0.296,0.912,0.6c0.256,0.304,0.384,0.68,0.384,1.128
	c0,0.448-0.2,0.856-0.6,1.224C121.391,55.063,120.854,55.167,120.183,55.007z"/>
<linearGradient id="SVGID_15_" gradientUnits="userSpaceOnUse" x1="9.9536" y1="-21.9946" x2="243.9537" y2="103.3389">
	<stop  offset="0" style="stop-color:#009F80"/>
	<stop  offset="1" style="stop-color:#00529B"/>
</linearGradient>
<path fill="url(#SVGID_15_)" d="M155.511,52.75c3.199,0.737,5.568,1.856,7.104,3.36c1.536,1.504,2.305,3.472,2.305,5.904
	c0,1.44-0.297,2.729-0.889,3.864c-0.592,1.137-1.416,2.104-2.472,2.904s-2.313,1.416-3.768,1.848
	c-1.457,0.432-3.049,0.648-4.776,0.648c-1.313,0-2.568-0.105-3.768-0.313c-1.2-0.208-2.313-0.48-3.336-0.816
	c-1.025-0.336-1.961-0.727-2.809-1.176c-0.848-0.447-1.56-0.912-2.136-1.393c-0.416-0.318-0.624-0.783-0.624-1.391
	c0-0.448,0.168-0.832,0.504-1.152c0.336-0.32,0.744-0.48,1.224-0.48c0.224,0,0.433,0.048,0.624,0.144
	c0.192,0.096,0.368,0.208,0.528,0.336c1.12,0.832,2.487,1.535,4.104,2.111s3.48,0.864,5.593,0.864c1.472,0,2.751-0.168,3.84-0.504
	c1.087-0.336,1.976-0.775,2.664-1.319c0.688-0.545,1.2-1.184,1.536-1.921c0.336-0.735,0.504-1.488,0.504-2.256
	s-0.112-1.456-0.336-2.064c-0.225-0.607-0.601-1.152-1.128-1.632c-0.528-0.48-1.232-0.904-2.112-1.272
	c-0.881-0.368-1.977-0.712-3.288-1.032c-0.353-0.096-0.656-0.295-0.912-0.6c-0.257-0.304-0.384-0.679-0.384-1.128
	c0-0.448,0.199-0.855,0.6-1.224C154.303,52.695,154.839,52.591,155.511,52.75z M150.039,55.007c-3.2-0.736-5.568-1.8-7.104-3.192
	c-1.536-1.392-2.304-3.304-2.304-5.736c0-1.44,0.271-2.728,0.815-3.864c0.544-1.136,1.304-2.104,2.28-2.904
	c0.976-0.799,2.151-1.416,3.528-1.848c1.375-0.432,2.896-0.648,4.56-0.648c1.92,0,3.712,0.249,5.376,0.744
	c1.664,0.497,3.008,1.16,4.032,1.992c0.415,0.353,0.624,0.816,0.624,1.392c0,0.448-0.168,0.833-0.504,1.152
	c-0.336,0.32-0.744,0.48-1.225,0.48c-0.224,0-0.432-0.056-0.623-0.168c-0.192-0.112-0.369-0.216-0.528-0.312
	c-0.96-0.576-2.017-1.056-3.168-1.44c-1.152-0.384-2.448-0.576-3.888-0.576c-1.505,0-2.753,0.161-3.744,0.48
	c-0.992,0.32-1.793,0.752-2.4,1.296c-0.608,0.545-1.04,1.176-1.296,1.896c-0.257,0.72-0.384,1.464-0.384,2.232
	c0,0.768,0.111,1.44,0.336,2.016c0.224,0.576,0.6,1.088,1.128,1.536c0.528,0.449,1.231,0.848,2.112,1.2
	c0.879,0.353,1.975,0.688,3.287,1.008c0.353,0.096,0.656,0.296,0.912,0.6c0.256,0.304,0.385,0.68,0.385,1.128
	c0,0.448-0.2,0.856-0.601,1.224C151.246,55.063,150.711,55.167,150.039,55.007z"/>
<linearGradient id="SVGID_16_" gradientUnits="userSpaceOnUse" x1="17.2754" y1="-35.6494" x2="251.268" y2="89.6802">
	<stop  offset="0" style="stop-color:#009F80"/>
	<stop  offset="1" style="stop-color:#00529B"/>
</linearGradient>
<path fill="url(#SVGID_16_)" d="M184.742,40.079c-1.439,0-2.776,0.256-4.008,0.768c-1.232,0.512-2.304,1.216-3.216,2.112
	c-0.912,0.896-1.656,1.968-2.232,3.216c-0.575,1.248-0.928,2.592-1.056,4.032c-0.257,2.561-0.257,5.121,0,7.68
	c0.128,1.28,0.408,2.472,0.84,3.576c0.433,1.104,1.008,2.088,1.729,2.952c0.72,0.865,1.567,1.583,2.544,2.16
	c0.976,0.576,2.056,0.977,3.24,1.201c0.352,0.064,0.663,0.248,0.936,0.551c0.271,0.305,0.408,0.648,0.408,1.033
	c0,0.447-0.161,0.824-0.48,1.127c-0.32,0.305-0.688,0.457-1.104,0.457c-0.161,0-0.313-0.009-0.456-0.025
	c-0.145-0.016-0.296-0.039-0.456-0.071c-1.44-0.319-2.784-0.864-4.032-1.632s-2.336-1.704-3.264-2.809
	c-0.929-1.104-1.68-2.375-2.256-3.815s-0.929-2.992-1.057-4.656c-0.191-2.592-0.191-5.184,0-7.776c0.128-1.855,0.568-3.6,1.32-5.232
	s1.744-3.048,2.976-4.248c1.232-1.2,2.664-2.144,4.297-2.832c1.632-0.688,3.407-1.032,5.327-1.032c1.921,0,3.696,0.344,5.328,1.032
	c1.632,0.688,3.064,1.632,4.296,2.832s2.225,2.616,2.977,4.248c0.751,1.632,1.191,3.376,1.32,5.232c0.191,2.592,0.191,5.184,0,7.776
	c-0.129,1.665-0.48,3.216-1.057,4.656s-1.328,2.712-2.256,3.815c-0.929,1.104-2.016,2.041-3.264,2.809s-2.593,1.313-4.032,1.632
	c-0.16,0.032-0.313,0.056-0.456,0.071c-0.144,0.017-0.296,0.025-0.456,0.025c-0.416,0-0.784-0.152-1.104-0.457
	c-0.32-0.303-0.48-0.68-0.48-1.127c0-0.385,0.136-0.729,0.408-1.033c0.271-0.303,0.583-0.486,0.936-0.551
	c1.184-0.225,2.256-0.625,3.216-1.201s1.801-1.295,2.521-2.16c0.72-0.864,1.304-1.848,1.752-2.952
	c0.447-1.104,0.735-2.296,0.864-3.576c0.256-2.56,0.256-5.12,0-7.68c-0.129-1.44-0.48-2.784-1.057-4.032
	c-0.575-1.248-1.319-2.32-2.231-3.216c-0.912-0.896-1.984-1.6-3.216-2.112C187.519,40.335,186.183,40.079,184.742,40.079z"/>
<linearGradient id="SVGID_17_" gradientUnits="userSpaceOnUse" x1="25.3545" y1="-50.7466" x2="259.3545" y2="74.587">
	<stop  offset="0" style="stop-color:#009F80"/>
	<stop  offset="1" style="stop-color:#00529B"/>
</linearGradient>
<path fill="url(#SVGID_17_)" d="M210.519,40.943h-0.097c0.032,0.96,0.064,1.976,0.097,3.048c0.031,1.072,0.048,2.408,0.048,4.008
	v21.121c0,0.479-0.161,0.888-0.48,1.224c-0.32,0.336-0.72,0.504-1.199,0.504c-0.449,0-0.841-0.175-1.177-0.528
	c-0.336-0.352-0.504-0.751-0.504-1.199V40.367c0-0.864,0.271-1.6,0.816-2.208c0.544-0.607,1.264-0.912,2.16-0.912
	c1.151,0,2.127,0.561,2.928,1.68l8.063,12.24c0.192,0.288,0.288,0.593,0.288,0.912c0,0.449-0.168,0.84-0.504,1.176
	c-0.336,0.336-0.728,0.504-1.176,0.504c-0.576,0-1.04-0.256-1.392-0.768L210.519,40.943z M220.982,56.879
	c-0.192-0.288-0.288-0.592-0.288-0.912c0-0.448,0.168-0.84,0.504-1.176s0.728-0.504,1.176-0.504c0.544,0,1.008,0.272,1.393,0.816
	l7.728,11.808h0.096c-0.032-0.959-0.071-1.943-0.119-2.952c-0.049-1.008-0.072-2.312-0.072-3.912V38.975
	c0-0.48,0.168-0.888,0.504-1.224c0.336-0.336,0.728-0.504,1.176-0.504c0.48,0,0.88,0.168,1.2,0.504
	c0.319,0.336,0.479,0.744,0.479,1.224v28.896c0,0.832-0.264,1.535-0.792,2.111c-0.527,0.576-1.208,0.864-2.04,0.864
	c-0.544,0-1.056-0.128-1.535-0.384c-0.48-0.256-0.896-0.656-1.248-1.2L220.982,56.879z"/>
<linearGradient id="SVGID_18_" gradientUnits="userSpaceOnUse" x1="-40.0684" y1="71.4014" x2="193.9268" y2="196.7323">
	<stop  offset="0" style="stop-color:#009F80"/>
	<stop  offset="1" style="stop-color:#00529B"/>
</linearGradient>
<path fill="url(#SVGID_18_)" d="M9.388,88.221H9.264c0.041,1.24,0.083,2.553,0.124,3.938s0.063,3.11,0.063,5.176v27.281
	c0,0.619-0.208,1.146-0.62,1.58c-0.414,0.435-0.931,0.651-1.55,0.651c-0.58,0-1.085-0.227-1.52-0.683
	c-0.434-0.453-0.651-0.971-0.651-1.549V87.477c0-1.115,0.352-2.066,1.055-2.852c0.702-0.785,1.632-1.178,2.79-1.178
	c1.487,0,2.748,0.723,3.782,2.17l10.415,15.81c0.248,0.372,0.372,0.765,0.372,1.178c0,0.579-0.217,1.085-0.65,1.519
	c-0.435,0.435-0.94,0.652-1.52,0.652c-0.744,0-1.344-0.331-1.798-0.992L9.388,88.221z M22.904,108.805
	c-0.248-0.372-0.372-0.764-0.372-1.178c0-0.578,0.217-1.086,0.65-1.52c0.435-0.434,0.939-0.65,1.52-0.65
	c0.702,0,1.302,0.352,1.798,1.054l9.981,15.252h0.124c-0.041-1.24-0.093-2.511-0.154-3.813c-0.063-1.302-0.094-2.985-0.094-5.053
	V85.679c0-0.62,0.218-1.147,0.651-1.581s0.939-0.65,1.52-0.65c0.619,0,1.136,0.217,1.55,0.65c0.412,0.434,0.62,0.961,0.62,1.581
	v37.323c0,1.076-0.342,1.984-1.023,2.729s-1.561,1.116-2.635,1.116c-0.703,0-1.364-0.165-1.984-0.496
	c-0.62-0.33-1.157-0.847-1.611-1.55L22.904,108.805z"/>
<linearGradient id="SVGID_19_" gradientUnits="userSpaceOnUse" x1="-29.6484" y1="51.9438" x2="204.3514" y2="177.2773">
	<stop  offset="0" style="stop-color:#009F80"/>
	<stop  offset="1" style="stop-color:#00529B"/>
</linearGradient>
<path fill="url(#SVGID_19_)" d="M69.714,82.889c3.513,0,6.644,0.879,9.393,2.635c2.749,1.758,4.825,4.145,6.231,7.161
	c0.124,0.331,0.186,0.642,0.186,0.931c0,0.578-0.217,1.084-0.65,1.519c-0.435,0.435-0.941,0.651-1.52,0.651
	c-0.455,0-0.848-0.125-1.178-0.373c-0.331-0.248-0.6-0.558-0.806-0.93c-1.075-2.272-2.626-4.07-4.65-5.394
	c-2.025-1.323-4.361-1.984-7.006-1.984c-1.86,0-3.586,0.331-5.177,0.992c-1.592,0.661-2.977,1.571-4.154,2.728
	c-1.178,1.158-2.139,2.543-2.883,4.154c-0.744,1.612-1.199,3.348-1.364,5.208c-0.331,3.308-0.331,6.614,0,9.92
	c0.165,1.653,0.537,3.204,1.116,4.65c0.578,1.447,1.354,2.728,2.325,3.844c0.971,1.116,2.086,2.057,3.348,2.821
	c1.261,0.766,2.655,1.292,4.185,1.58c0.455,0.084,0.857,0.321,1.209,0.714c0.352,0.394,0.527,0.837,0.527,1.333
	c0,0.579-0.207,1.064-0.62,1.457s-0.889,0.589-1.426,0.589c-0.207,0-0.403-0.011-0.589-0.031c-0.187-0.021-0.383-0.052-0.589-0.093
	c-1.86-0.412-3.607-1.116-5.239-2.107c-1.634-0.992-3.06-2.223-4.278-3.689c-1.22-1.467-2.211-3.131-2.976-4.991
	c-0.766-1.86-1.23-3.864-1.396-6.015c-0.248-3.348-0.248-6.695,0-10.043c0.165-2.396,0.733-4.65,1.705-6.758
	c0.971-2.108,2.253-3.938,3.845-5.487c1.59-1.55,3.44-2.769,5.549-3.658C64.939,83.334,67.233,82.889,69.714,82.889z
	 M82.424,103.969c1.28,0,2.252,0.372,2.914,1.115c0.66,0.744,0.992,1.654,0.992,2.729v4.278c0,1.735-0.29,3.421-0.868,5.053
	c-0.579,1.634-1.406,3.11-2.48,4.433c-1.075,1.324-2.387,2.46-3.937,3.41c-1.55,0.951-3.297,1.612-5.239,1.984
	c-0.207,0.041-0.403,0.072-0.589,0.093s-0.383,0.031-0.589,0.031c-0.538,0-1.014-0.196-1.426-0.589
	c-0.414-0.393-0.62-0.878-0.62-1.457c0-0.496,0.175-0.939,0.526-1.333c0.351-0.393,0.754-0.63,1.209-0.714
	c1.405-0.247,2.707-0.67,3.906-1.271c1.198-0.599,2.222-1.343,3.069-2.231c0.847-0.889,1.508-1.922,1.983-3.1
	c0.475-1.179,0.714-2.449,0.714-3.813v-4.278h-9.549c-0.62,0-1.146-0.217-1.581-0.65c-0.434-0.435-0.65-0.94-0.65-1.52
	c0-0.62,0.217-1.137,0.65-1.55c0.435-0.413,0.961-0.62,1.581-0.62H82.424z"/>
<linearGradient id="SVGID_20_" gradientUnits="userSpaceOnUse" x1="-22.1201" y1="37.8882" x2="211.8798" y2="163.2217">
	<stop  offset="0" style="stop-color:#009F80"/>
	<stop  offset="1" style="stop-color:#00529B"/>
</linearGradient>
<path fill="url(#SVGID_20_)" d="M98.481,107.316c-0.62,0-1.147-0.217-1.581-0.65c-0.435-0.435-0.651-0.939-0.651-1.52
	c0-0.619,0.217-1.137,0.651-1.55c0.434-0.413,0.961-0.62,1.581-0.62h9.92c0.62,0,1.146,0.207,1.581,0.62
	c0.434,0.413,0.65,0.931,0.65,1.55c0,0.58-0.228,1.085-0.682,1.52c-0.455,0.434-0.972,0.65-1.55,0.65H98.481z"/>
<linearGradient id="SVGID_21_" gradientUnits="userSpaceOnUse" x1="-14.4009" y1="23.4683" x2="219.605" y2="148.8049">
	<stop  offset="0" style="stop-color:#009F80"/>
	<stop  offset="1" style="stop-color:#00529B"/>
</linearGradient>
<path fill="url(#SVGID_21_)" d="M138.099,87.104c-1.86,0-3.586,0.331-5.177,0.992c-1.592,0.661-2.977,1.571-4.154,2.728
	c-1.178,1.158-2.139,2.543-2.883,4.154c-0.744,1.612-1.199,3.348-1.364,5.208c-0.331,3.308-0.331,6.614,0,9.92
	c0.165,1.653,0.527,3.193,1.085,4.619c0.558,1.427,1.302,2.697,2.232,3.813c0.93,1.115,2.024,2.045,3.285,2.789
	s2.656,1.262,4.186,1.551c0.454,0.083,0.857,0.32,1.209,0.713c0.351,0.393,0.527,0.837,0.527,1.333c0,0.579-0.208,1.064-0.62,1.457
	c-0.414,0.394-0.89,0.589-1.427,0.589c-0.207,0-0.402-0.011-0.589-0.031c-0.186-0.021-0.382-0.053-0.589-0.093
	c-1.859-0.413-3.596-1.116-5.208-2.108c-1.611-0.992-3.018-2.201-4.216-3.627c-1.199-1.426-2.17-3.068-2.914-4.929
	s-1.199-3.864-1.364-6.015c-0.248-3.348-0.248-6.695,0-10.043c0.165-2.396,0.733-4.65,1.705-6.758
	c0.971-2.108,2.253-3.938,3.845-5.487c1.59-1.55,3.44-2.769,5.549-3.658c2.107-0.888,4.401-1.333,6.882-1.333
	c2.479,0,4.773,0.445,6.882,1.333c2.108,0.89,3.957,2.108,5.549,3.658c1.591,1.55,2.873,3.379,3.844,5.487
	c0.971,2.107,1.54,4.361,1.705,6.758c0.248,3.348,0.248,6.695,0,10.043c-0.165,2.15-0.619,4.154-1.363,6.015
	s-1.716,3.503-2.914,4.929c-1.199,1.426-2.604,2.635-4.216,3.627c-1.612,0.992-3.349,1.695-5.208,2.108
	c-0.208,0.04-0.403,0.071-0.59,0.093c-0.186,0.021-0.382,0.031-0.589,0.031c-0.537,0-1.013-0.195-1.426-0.589
	c-0.414-0.393-0.62-0.878-0.62-1.457c0-0.496,0.176-0.94,0.527-1.333c0.351-0.393,0.754-0.63,1.209-0.713
	c1.528-0.289,2.914-0.807,4.154-1.551c1.239-0.744,2.324-1.674,3.255-2.789c0.93-1.116,1.684-2.387,2.263-3.813
	c0.578-1.426,0.95-2.966,1.116-4.619c0.33-3.306,0.33-6.612,0-9.92c-0.166-1.86-0.62-3.596-1.364-5.208
	c-0.744-1.611-1.705-2.996-2.883-4.154c-1.178-1.156-2.563-2.066-4.154-2.728C141.684,87.436,139.959,87.104,138.099,87.104z"/>
<linearGradient id="SVGID_22_" gradientUnits="userSpaceOnUse" x1="-5.2153" y1="6.3262" x2="228.7845" y2="131.6597">
	<stop  offset="0" style="stop-color:#009F80"/>
	<stop  offset="1" style="stop-color:#00529B"/>
</linearGradient>
<path fill="url(#SVGID_22_)" d="M183.916,103.473c4.133,0.951,7.192,2.397,9.176,4.34c1.984,1.943,2.977,4.485,2.977,7.626
	c0,1.86-0.383,3.524-1.147,4.991c-0.765,1.468-1.829,2.719-3.192,3.751c-1.364,1.034-2.987,1.829-4.867,2.388
	c-1.882,0.557-3.938,0.836-6.169,0.836c-1.695,0-3.317-0.135-4.867-0.402c-1.55-0.269-2.986-0.62-4.309-1.055
	c-1.323-0.434-2.532-0.939-3.627-1.519c-1.096-0.579-2.016-1.179-2.76-1.798c-0.537-0.413-0.806-1.013-0.806-1.799
	c0-0.578,0.217-1.074,0.651-1.487c0.434-0.413,0.961-0.62,1.581-0.62c0.288,0,0.558,0.063,0.806,0.186
	c0.248,0.125,0.475,0.27,0.682,0.435c1.446,1.075,3.214,1.983,5.302,2.728c2.086,0.744,4.494,1.116,7.223,1.116
	c1.9,0,3.555-0.217,4.96-0.651c1.404-0.434,2.552-1.001,3.441-1.705c0.888-0.701,1.55-1.527,1.983-2.479
	c0.435-0.95,0.651-1.922,0.651-2.914c0-0.991-0.146-1.88-0.435-2.666c-0.289-0.784-0.774-1.487-1.457-2.108
	c-0.682-0.619-1.591-1.166-2.728-1.643c-1.138-0.475-2.553-0.919-4.247-1.333c-0.455-0.124-0.848-0.382-1.178-0.774
	c-0.332-0.393-0.496-0.878-0.496-1.457c0-0.578,0.258-1.105,0.774-1.582C182.355,103.4,183.048,103.266,183.916,103.473z
	 M176.849,106.387c-4.134-0.95-7.192-2.325-9.177-4.123c-1.983-1.798-2.976-4.268-2.976-7.409c0-1.86,0.351-3.522,1.054-4.991
	c0.702-1.467,1.684-2.717,2.945-3.75c1.261-1.033,2.779-1.83,4.557-2.388s3.74-0.837,5.891-0.837c2.479,0,4.794,0.32,6.943,0.961
	c2.149,0.642,3.885,1.498,5.208,2.573c0.537,0.455,0.807,1.054,0.807,1.798c0,0.579-0.218,1.075-0.651,1.488
	c-0.434,0.414-0.961,0.619-1.581,0.619c-0.29,0-0.558-0.071-0.806-0.217c-0.248-0.145-0.476-0.279-0.683-0.402
	c-1.239-0.744-2.604-1.364-4.092-1.86s-3.162-0.744-5.021-0.744c-1.943,0-3.556,0.208-4.836,0.62
	c-1.282,0.414-2.315,0.972-3.101,1.674c-0.785,0.703-1.344,1.52-1.674,2.449c-0.331,0.93-0.496,1.891-0.496,2.883
	s0.145,1.86,0.435,2.604c0.288,0.744,0.774,1.406,1.456,1.984c0.683,0.58,1.591,1.096,2.729,1.551
	c1.137,0.455,2.552,0.889,4.247,1.302c0.454,0.124,0.847,0.382,1.178,0.774c0.33,0.394,0.496,0.879,0.496,1.457
	c0,0.58-0.259,1.106-0.775,1.582C178.408,106.459,177.716,106.594,176.849,106.387z"/>
<linearGradient id="SVGID_23_" gradientUnits="userSpaceOnUse" x1="3.3823" y1="-9.7241" x2="237.3822" y2="115.6094">
	<stop  offset="0" style="stop-color:#009F80"/>
	<stop  offset="1" style="stop-color:#00529B"/>
</linearGradient>
<path fill="url(#SVGID_23_)" d="M222.48,103.473c4.133,0.951,7.191,2.397,9.176,4.34c1.984,1.943,2.976,4.485,2.976,7.626
	c0,1.86-0.382,3.524-1.146,4.991c-0.766,1.468-1.829,2.719-3.193,3.751c-1.364,1.034-2.986,1.829-4.867,2.388
	c-1.881,0.557-3.937,0.836-6.169,0.836c-1.695,0-3.316-0.135-4.866-0.402c-1.551-0.269-2.987-0.62-4.31-1.055
	c-1.323-0.434-2.532-0.939-3.627-1.519c-1.096-0.579-2.015-1.179-2.759-1.798c-0.538-0.413-0.806-1.013-0.806-1.799
	c0-0.578,0.217-1.074,0.65-1.487c0.435-0.413,0.961-0.62,1.581-0.62c0.289,0,0.558,0.063,0.806,0.186
	c0.248,0.125,0.476,0.27,0.683,0.435c1.446,1.075,3.213,1.983,5.301,2.728c2.087,0.744,4.495,1.116,7.223,1.116
	c1.901,0,3.555-0.217,4.96-0.651c1.405-0.434,2.552-1.001,3.441-1.705c0.889-0.701,1.55-1.527,1.984-2.479
	c0.434-0.95,0.65-1.922,0.65-2.914c0-0.991-0.146-1.88-0.434-2.666c-0.29-0.784-0.775-1.487-1.457-2.108
	c-0.683-0.619-1.592-1.166-2.729-1.643c-1.137-0.475-2.553-0.919-4.247-1.333c-0.455-0.124-0.848-0.382-1.178-0.774
	c-0.331-0.393-0.496-0.878-0.496-1.457c0-0.578,0.258-1.105,0.775-1.582C220.92,103.4,221.612,103.266,222.48,103.473z
	 M215.412,106.387c-4.134-0.95-7.192-2.325-9.176-4.123c-1.984-1.798-2.977-4.268-2.977-7.409c0-1.86,0.352-3.522,1.055-4.991
	c0.702-1.467,1.684-2.717,2.944-3.75s2.779-1.83,4.558-2.388c1.776-0.558,3.74-0.837,5.89-0.837c2.48,0,4.795,0.32,6.944,0.961
	c2.148,0.642,3.885,1.498,5.208,2.573c0.536,0.455,0.806,1.054,0.806,1.798c0,0.579-0.217,1.075-0.65,1.488
	c-0.435,0.414-0.962,0.619-1.581,0.619c-0.29,0-0.559-0.071-0.807-0.217c-0.248-0.145-0.476-0.279-0.682-0.402
	c-1.24-0.744-2.604-1.364-4.092-1.86c-1.488-0.496-3.162-0.744-5.022-0.744c-1.943,0-3.556,0.208-4.836,0.62
	c-1.281,0.414-2.315,0.972-3.1,1.674c-0.786,0.703-1.344,1.52-1.675,2.449s-0.495,1.891-0.495,2.883s0.144,1.86,0.434,2.604
	c0.289,0.744,0.775,1.406,1.457,1.984c0.682,0.58,1.591,1.096,2.728,1.551s2.552,0.889,4.247,1.302
	c0.455,0.124,0.847,0.382,1.179,0.774c0.33,0.394,0.496,0.879,0.496,1.457c0,0.58-0.259,1.106-0.775,1.582
	C216.972,106.459,216.28,106.594,215.412,106.387z"/>
</svg>
