<?xml version="1.0" ?><!DOCTYPE svg  PUBLIC '-//W3C//DTD SVG 1.1//EN'  'http://www.w3.org/Graphics/SVG/1.1/DTD/svg11.dtd'><svg enable-background="new 0 0 24 24" height="24px" id="Layer_1" version="1.1" viewBox="0 0 24 24" width="24px" xml:space="preserve" xmlns="http://www.w3.org/2000/svg" xmlns:xlink="http://www.w3.org/1999/xlink"><path d="M24,1c0-0.6-0.4-1-1-1H1C0.4,0,0,0.4,0,1v22c0,0.6,0.4,1,1,1h22c0.6,0,1-0.4,1-1V1z M2,2h7v2H2V2z M2,5h12v4H2V5z M2,10h7v4  H2V10z M2,15h12v4H2V15z M2,22v-2h7v2H2z M22,22H10v-2h12V22z M22,19h-7v-4h7V19z M22,14H10v-4h12V14z M22,9h-7V5h7V9z M22,4H10V2  h12V4z"/></svg>