<?xml version="1.0" encoding="utf-8"?>
<!-- Generator: Adobe Illustrator 16.0.2, SVG Export Plug-In . SVG Version: 6.00 Build 0)  -->
<!DOCTYPE svg PUBLIC "-//W3C//DTD SVG 1.1//EN" "http://www.w3.org/Graphics/SVG/1.1/DTD/svg11.dtd">
<svg version="1.1" id="Layer_1" xmlns="http://www.w3.org/2000/svg" xmlns:xlink="http://www.w3.org/1999/xlink" x="0px" y="0px"
	 width="16px" height="16px" viewBox="0 0 16 16" enable-background="new 0 0 16 16" xml:space="preserve">
<rect display="none" fill="#66A19F" width="87" height="3280.971"/>
<g>
	<path fill="#FFFFFF" d="M7.293,11.707C7.488,11.902,7.744,12,8,12s0.512-0.099,0.707-0.293l5-5c0.391-0.391,0.391-1.023,0-1.414
		s-1.023-0.391-1.414,0L9,8.586V2c0-0.553-0.447-1-1-1S7,1.447,7,2v6.586L3.707,5.293c-0.391-0.391-1.023-0.391-1.414,0
		s-0.391,1.023,0,1.414L7.293,11.707z"/>
	<path fill="#FFFFFF" d="M14,13H2c-0.553,0-1,0.447-1,1c0,0.551,0.447,1,1,1h12c0.553,0,1-0.449,1-1C15,13.447,14.553,13,14,13z"/>
</g>
<rect x="13" y="197.971" display="none" opacity="0.2" fill="#E94E47" enable-background="new    " width="16" height="16"/>
</svg>
