<?xml version="1.0" encoding="utf-8"?>
<!-- Generator: Adobe Illustrator 16.0.2, SVG Export Plug-In . SVG Version: 6.00 Build 0)  -->
<!DOCTYPE svg PUBLIC "-//W3C//DTD SVG 1.1//EN" "http://www.w3.org/Graphics/SVG/1.1/DTD/svg11.dtd">
<svg version="1.1" id="Layer_1" xmlns="http://www.w3.org/2000/svg" xmlns:xlink="http://www.w3.org/1999/xlink" x="0px" y="0px"
	 width="20px" height="20px" viewBox="0 0 20 20" enable-background="new 0 0 20 20" xml:space="preserve">
<path d="M5,6.2C5,3.333,7.243,1,10,1s5,2.333,5,5.2c0,0.552-0.447,1-1,1s-1-0.448-1-1C13,4.436,11.654,3,10,3
	S7,4.436,7,6.2c0,0.552-0.447,1-1,1S5,6.752,5,6.2z M17,11v5c0,1.657-1.343,3-3,3H6c-1.656,0-3-1.343-3-3v-5c0-1.657,1.344-3,3-3h8
	C15.657,8,17,9.343,17,11z M12,12c0-0.967-0.686-1.773-1.597-1.959C10.273,10.014,10.139,10,10,10c-0.174,0-0.34,0.029-0.501,0.071
	C8.639,10.294,8,11.069,8,12c0,0.001,0,0.001,0,0.001c0,0.001,0,0.002,0,0.003c0,0.166,0.027,0.325,0.065,0.479
	c0.011,0.042,0.024,0.082,0.038,0.123c0.039,0.122,0.088,0.237,0.148,0.347c0.016,0.027,0.028,0.056,0.045,0.083
	c0.172,0.282,0.411,0.516,0.696,0.683C8.996,13.721,8.997,13.723,9,13.724v2.273C9,16.549,9.449,17,10,17s1-0.451,1-1.003v-2.273
	c0.002-0.001,0.003-0.003,0.005-0.004c0.288-0.169,0.528-0.404,0.701-0.689c0.014-0.021,0.023-0.044,0.036-0.066
	c0.063-0.114,0.115-0.235,0.155-0.362c0.013-0.039,0.026-0.076,0.036-0.116c0.039-0.154,0.065-0.314,0.066-0.481
	C12,12.003,12,12.002,12,12C12,12.001,12,12.001,12,12z"/>
</svg>
