<?xml version="1.0" encoding="utf-8"?>
<!-- Generator: Adobe Illustrator 16.0.2, SVG Export Plug-In . SVG Version: 6.00 Build 0)  -->
<!DOCTYPE svg PUBLIC "-//W3C//DTD SVG 1.1//EN" "http://www.w3.org/Graphics/SVG/1.1/DTD/svg11.dtd">
<svg version="1.1" id="Layer_1" xmlns="http://www.w3.org/2000/svg" xmlns:xlink="http://www.w3.org/1999/xlink" x="0px" y="0px"
     width="20px" height="20px" viewBox="0 0 20 20" enable-background="new 0 0 20 20" xml:space="preserve">
<g>
    <path fill="#FFFFFF" d="M3,13.5V16c0,1.105,0.896,2,2,2h10c1.104,0,2-0.895,2-2v-2.5l-7.011-7L3,13.5z"/>
    <path fill="#FFFFFF" d="M18.707,10.293L15,6.586V3c0-0.552-0.447-1-1-1s-1,0.448-1,1v1.586l-2.293-2.293
        c-0.391-0.391-1.023-0.391-1.414,0l-8,8c-0.391,0.391-0.391,1.023,0,1.414C1.488,11.902,1.744,12,2,12s0.512-0.098,0.707-0.293
        L10,4.414l3.292,3.292c0.001,0,0.001,0.001,0.002,0.001l3.999,4C17.488,11.902,17.744,12,18,12s0.512-0.098,0.707-0.293
        C19.098,11.316,19.098,10.684,18.707,10.293z"/>
</g>
</svg>
