<?xml version="1.0" encoding="utf-8"?>
<!-- Generator: Adobe Illustrator 15.0.0, SVG Export Plug-In  -->
<!DOCTYPE svg PUBLIC "-//W3C//DTD SVG 1.1//EN" "http://www.w3.org/Graphics/SVG/1.1/DTD/svg11.dtd" [
	<!ENTITY ns_flows "http://ns.adobe.com/Flows/1.0/">
]>
<svg version="1.1"
	 xmlns="http://www.w3.org/2000/svg" xmlns:xlink="http://www.w3.org/1999/xlink" xmlns:a="http://ns.adobe.com/AdobeSVGViewerExtensions/3.0/"
	 x="0px" y="0px" width="16px" height="16px" viewBox="8 293.97 16 16" enable-background="new 8 293.97 16 16"
	 xml:space="preserve">
<defs>
</defs>
<rect display="none" fill="#66A19F" width="87" height="2381.97"/>
<path d="M13.28,296.25c0.215-0.214,0.278-0.537,0.163-0.817c-0.116-0.281-0.39-0.463-0.693-0.463h-3c-0.414,0-0.75,0.336-0.75,0.75
	v3c0,0.303,0.183,0.577,0.463,0.693c0.093,0.039,0.19,0.057,0.287,0.057c0.195,0,0.387-0.076,0.53-0.22l0.97-0.97l2.806,2.806
	l1.061-1.061l-2.806-2.806L13.28,296.25z"/>
<path d="M22.25,294.97h-3c-0.304,0-0.577,0.182-0.693,0.463c-0.115,0.28-0.052,0.603,0.163,0.817l0.97,0.97l-2.806,2.806
	l1.061,1.061l2.806-2.806l0.969,0.97c0.144,0.144,0.335,0.22,0.531,0.22c0.097,0,0.194-0.019,0.287-0.057
	c0.28-0.116,0.463-0.39,0.463-0.693v-3C23,295.306,22.664,294.97,22.25,294.97z"/>
<path d="M22.537,304.527c-0.28-0.115-0.603-0.051-0.818,0.163l-0.969,0.97l-2.806-2.806l-1.061,1.061l2.806,2.806l-0.97,0.97
	c-0.215,0.215-0.278,0.537-0.163,0.817c0.116,0.28,0.39,0.463,0.693,0.463h3c0.414,0,0.75-0.336,0.75-0.75v-3
	C23,304.917,22.817,304.643,22.537,304.527z"/>
<path d="M14.056,302.854l-2.806,2.806l-0.97-0.97c-0.215-0.214-0.537-0.278-0.817-0.163C9.183,304.643,9,304.917,9,305.22v3
	c0,0.414,0.336,0.75,0.75,0.75h3c0.303,0,0.577-0.183,0.693-0.463c0.115-0.28,0.052-0.603-0.163-0.817l-0.97-0.97l2.806-2.806
	L14.056,302.854z"/>
<rect x="8" y="293.97" display="none" opacity="0.2" fill="#E94E47" width="16" height="16"/>
</svg>
